<?xml version="1.0" encoding="UTF-8" standalone="no"?>
<svg
   width="2050"
   height="500"
   version="1.2"
   viewBox="0 0 1537.5 375"
   id="svg2665"
   sodipodi:docname="bottom_r.svg"
   inkscape:version="1.2.1 (9c6d41e, 2022-07-14)"
   xmlns:inkscape="http://www.inkscape.org/namespaces/inkscape"
   xmlns:sodipodi="http://sodipodi.sourceforge.net/DTD/sodipodi-0.dtd"
   xmlns="http://www.w3.org/2000/svg"
   xmlns:svg="http://www.w3.org/2000/svg">
  <sodipodi:namedview
     id="namedview2667"
     pagecolor="#ffffff"
     bordercolor="#000000"
     borderopacity="0.25"
     inkscape:showpageshadow="2"
     inkscape:pageopacity="0.0"
     inkscape:pagecheckerboard="0"
     inkscape:deskcolor="#d1d1d1"
     showgrid="false"
     inkscape:zoom="0.33315199"
     inkscape:cx="787.92866"
     inkscape:cy="235.62819"
     inkscape:window-width="1440"
     inkscape:window-height="777"
     inkscape:window-x="0"
     inkscape:window-y="25"
     inkscape:window-maximized="1"
     inkscape:current-layer="svg2665" />
  <defs
     id="defs2658">
    <clipPath
       id="clip1">
      <path
         d="M 0 0.0625 L 1537 0.0625 L 1537 374.9375 L 0 374.9375 Z M 0 0.0625"
         id="path2364" />
    </clipPath>
    <filter
       id="alpha"
       width="1"
       height="1"
       x="0"
       y="0"
       filterUnits="objectBoundingBox">
      <feColorMatrix
         in="SourceGraphic"
         type="matrix"
         values="0 0 0 0 1 0 0 0 0 1 0 0 0 0 1 0 0 0 1 0"
         id="feColorMatrix2367" />
    </filter>
    <mask
       id="mask0">
      <g
         filter="url(#alpha)"
         id="g2372">
        <rect
           width="1537.5"
           height="375"
           x="0"
           y="0"
           style="fill:#000;fill-opacity:.8588;stroke:none"
           id="rect2370" />
      </g>
    </mask>
    <clipPath
       id="clip3">
      <path
         d="M 0 94 L 1537 94 L 1537 374.9375 L 0 374.9375 Z M 0 94"
         id="path2375" />
    </clipPath>
    <clipPath
       id="clip4">
      <path
         d="M 1908.890625 330.027344 L 549.304688 1315.628906 L -371.585938 45.304688 L 988 -940.292969 Z M 1908.890625 330.027344"
         id="path2378" />
    </clipPath>
    <clipPath
       id="clip5">
      <path
         d="M 1908.890625 330.027344 L 549.304688 1315.628906 L -371.585938 45.304688 L 988 -940.292969 Z M 1908.890625 330.027344"
         id="path2381" />
    </clipPath>
    <clipPath
       id="clip6">
      <path
         d="M -174.660156 212.640625 C -166.574219 323.9375 480.328125 651.382812 696.011719 703.554688 C 951.542969 765.28125 1257.9375 763.484375 1486.289062 611.332031 C 1907.5625 330.5 1307.699219 -72.1875 851.945312 167.691406 C 457.851562 375.027344 -196.097656 -82.277344 -174.660156 212.640625 Z M -174.660156 212.640625"
         id="path2384" />
    </clipPath>
    <linearGradient
       id="linear0"
       x1="-127.843"
       x2="-6.589"
       y1="-261.95"
       y2="-261.95"
       gradientTransform="matrix(5.835812,8.050207,8.051917,-5.837052,3198.654414,-748.726126)"
       gradientUnits="userSpaceOnUse">
      <stop
         offset="0"
         style="stop-color:#5e17eb;stop-opacity:1"
         id="stop2387" />
      <stop
         offset=".016"
         style="stop-color:#5e17eb;stop-opacity:1"
         id="stop2389" />
      <stop
         offset=".023"
         style="stop-color:#5e17eb;stop-opacity:1"
         id="stop2391" />
      <stop
         offset=".031"
         style="stop-color:#5d17ea;stop-opacity:1"
         id="stop2393" />
      <stop
         offset=".039"
         style="stop-color:#5c18ea;stop-opacity:1"
         id="stop2395" />
      <stop
         offset=".047"
         style="stop-color:#5c18ea;stop-opacity:1"
         id="stop2397" />
      <stop
         offset=".055"
         style="stop-color:#5b19e9;stop-opacity:1"
         id="stop2399" />
      <stop
         offset=".063"
         style="stop-color:#5a19e9;stop-opacity:1"
         id="stop2401" />
      <stop
         offset=".07"
         style="stop-color:#5a19e8;stop-opacity:1"
         id="stop2403" />
      <stop
         offset=".078"
         style="stop-color:#591ae8;stop-opacity:1"
         id="stop2405" />
      <stop
         offset=".086"
         style="stop-color:#581ae7;stop-opacity:1"
         id="stop2407" />
      <stop
         offset=".094"
         style="stop-color:#581ae7;stop-opacity:1"
         id="stop2409" />
      <stop
         offset=".102"
         style="stop-color:#571be7;stop-opacity:1"
         id="stop2411" />
      <stop
         offset=".109"
         style="stop-color:#571be6;stop-opacity:1"
         id="stop2413" />
      <stop
         offset=".117"
         style="stop-color:#561be6;stop-opacity:1"
         id="stop2415" />
      <stop
         offset=".125"
         style="stop-color:#551ce5;stop-opacity:1"
         id="stop2417" />
      <stop
         offset=".133"
         style="stop-color:#551ce5;stop-opacity:1"
         id="stop2419" />
      <stop
         offset=".141"
         style="stop-color:#541ce4;stop-opacity:1"
         id="stop2421" />
      <stop
         offset=".148"
         style="stop-color:#531de4;stop-opacity:1"
         id="stop2423" />
      <stop
         offset=".156"
         style="stop-color:#531de3;stop-opacity:1"
         id="stop2425" />
      <stop
         offset=".164"
         style="stop-color:#521ee3;stop-opacity:1"
         id="stop2427" />
      <stop
         offset=".172"
         style="stop-color:#511ee3;stop-opacity:1"
         id="stop2429" />
      <stop
         offset=".18"
         style="stop-color:#511ee2;stop-opacity:1"
         id="stop2431" />
      <stop
         offset=".188"
         style="stop-color:#501fe2;stop-opacity:1"
         id="stop2433" />
      <stop
         offset=".195"
         style="stop-color:#4f1fe1;stop-opacity:1"
         id="stop2435" />
      <stop
         offset=".203"
         style="stop-color:#4f1fe1;stop-opacity:1"
         id="stop2437" />
      <stop
         offset=".211"
         style="stop-color:#4e20e0;stop-opacity:1"
         id="stop2439" />
      <stop
         offset=".219"
         style="stop-color:#4d20e0;stop-opacity:1"
         id="stop2441" />
      <stop
         offset=".227"
         style="stop-color:#4d20e0;stop-opacity:1"
         id="stop2443" />
      <stop
         offset=".234"
         style="stop-color:#4c21df;stop-opacity:1"
         id="stop2445" />
      <stop
         offset=".242"
         style="stop-color:#4b21df;stop-opacity:1"
         id="stop2447" />
      <stop
         offset=".25"
         style="stop-color:#4b21de;stop-opacity:1"
         id="stop2449" />
      <stop
         offset=".258"
         style="stop-color:#4a22de;stop-opacity:1"
         id="stop2451" />
      <stop
         offset=".266"
         style="stop-color:#4922dd;stop-opacity:1"
         id="stop2453" />
      <stop
         offset=".273"
         style="stop-color:#4923dd;stop-opacity:1"
         id="stop2455" />
      <stop
         offset=".281"
         style="stop-color:#4823dd;stop-opacity:1"
         id="stop2457" />
      <stop
         offset=".289"
         style="stop-color:#4723dc;stop-opacity:1"
         id="stop2459" />
      <stop
         offset=".297"
         style="stop-color:#4724dc;stop-opacity:1"
         id="stop2461" />
      <stop
         offset=".305"
         style="stop-color:#4624db;stop-opacity:1"
         id="stop2463" />
      <stop
         offset=".313"
         style="stop-color:#4524db;stop-opacity:1"
         id="stop2465" />
      <stop
         offset=".32"
         style="stop-color:#4525da;stop-opacity:1"
         id="stop2467" />
      <stop
         offset=".328"
         style="stop-color:#4425da;stop-opacity:1"
         id="stop2469" />
      <stop
         offset=".336"
         style="stop-color:#4325d9;stop-opacity:1"
         id="stop2471" />
      <stop
         offset=".344"
         style="stop-color:#4326d9;stop-opacity:1"
         id="stop2473" />
      <stop
         offset=".352"
         style="stop-color:#4226d9;stop-opacity:1"
         id="stop2475" />
      <stop
         offset=".359"
         style="stop-color:#4126d8;stop-opacity:1"
         id="stop2477" />
      <stop
         offset=".367"
         style="stop-color:#4127d8;stop-opacity:1"
         id="stop2479" />
      <stop
         offset=".375"
         style="stop-color:#4027d7;stop-opacity:1"
         id="stop2481" />
      <stop
         offset=".383"
         style="stop-color:#4028d7;stop-opacity:1"
         id="stop2483" />
      <stop
         offset=".391"
         style="stop-color:#3f28d6;stop-opacity:1"
         id="stop2485" />
      <stop
         offset=".398"
         style="stop-color:#3e28d6;stop-opacity:1"
         id="stop2487" />
      <stop
         offset=".406"
         style="stop-color:#3e29d6;stop-opacity:1"
         id="stop2489" />
      <stop
         offset=".414"
         style="stop-color:#3d29d5;stop-opacity:1"
         id="stop2491" />
      <stop
         offset=".422"
         style="stop-color:#3c29d5;stop-opacity:1"
         id="stop2493" />
      <stop
         offset=".43"
         style="stop-color:#3c2ad4;stop-opacity:1"
         id="stop2495" />
      <stop
         offset=".438"
         style="stop-color:#3b2ad4;stop-opacity:1"
         id="stop2497" />
      <stop
         offset=".445"
         style="stop-color:#3a2ad3;stop-opacity:1"
         id="stop2499" />
      <stop
         offset=".453"
         style="stop-color:#3a2bd3;stop-opacity:1"
         id="stop2501" />
      <stop
         offset=".461"
         style="stop-color:#392bd3;stop-opacity:1"
         id="stop2503" />
      <stop
         offset=".469"
         style="stop-color:#382bd2;stop-opacity:1"
         id="stop2505" />
      <stop
         offset=".477"
         style="stop-color:#382cd2;stop-opacity:1"
         id="stop2507" />
      <stop
         offset=".484"
         style="stop-color:#372cd1;stop-opacity:1"
         id="stop2509" />
      <stop
         offset=".492"
         style="stop-color:#362dd1;stop-opacity:1"
         id="stop2511" />
      <stop
         offset=".5"
         style="stop-color:#362dd0;stop-opacity:1"
         id="stop2513" />
      <stop
         offset=".508"
         style="stop-color:#352dd0;stop-opacity:1"
         id="stop2515" />
      <stop
         offset=".516"
         style="stop-color:#342ed0;stop-opacity:1"
         id="stop2517" />
      <stop
         offset=".523"
         style="stop-color:#342ecf;stop-opacity:1"
         id="stop2519" />
      <stop
         offset=".531"
         style="stop-color:#332ecf;stop-opacity:1"
         id="stop2521" />
      <stop
         offset=".539"
         style="stop-color:#322fce;stop-opacity:1"
         id="stop2523" />
      <stop
         offset=".547"
         style="stop-color:#322fce;stop-opacity:1"
         id="stop2525" />
      <stop
         offset=".555"
         style="stop-color:#312fcd;stop-opacity:1"
         id="stop2527" />
      <stop
         offset=".563"
         style="stop-color:#3030cd;stop-opacity:1"
         id="stop2529" />
      <stop
         offset=".57"
         style="stop-color:#3030cc;stop-opacity:1"
         id="stop2531" />
      <stop
         offset=".578"
         style="stop-color:#2f30cc;stop-opacity:1"
         id="stop2533" />
      <stop
         offset=".586"
         style="stop-color:#2e31cc;stop-opacity:1"
         id="stop2535" />
      <stop
         offset=".594"
         style="stop-color:#2e31cb;stop-opacity:1"
         id="stop2537" />
      <stop
         offset=".602"
         style="stop-color:#2d31cb;stop-opacity:1"
         id="stop2539" />
      <stop
         offset=".609"
         style="stop-color:#2c32ca;stop-opacity:1"
         id="stop2541" />
      <stop
         offset=".617"
         style="stop-color:#2c32ca;stop-opacity:1"
         id="stop2543" />
      <stop
         offset=".625"
         style="stop-color:#2b33c9;stop-opacity:1"
         id="stop2545" />
      <stop
         offset=".633"
         style="stop-color:#2b33c9;stop-opacity:1"
         id="stop2547" />
      <stop
         offset=".641"
         style="stop-color:#2a33c9;stop-opacity:1"
         id="stop2549" />
      <stop
         offset=".648"
         style="stop-color:#2934c8;stop-opacity:1"
         id="stop2551" />
      <stop
         offset=".656"
         style="stop-color:#2934c8;stop-opacity:1"
         id="stop2553" />
      <stop
         offset=".664"
         style="stop-color:#2834c7;stop-opacity:1"
         id="stop2555" />
      <stop
         offset=".672"
         style="stop-color:#2735c7;stop-opacity:1"
         id="stop2557" />
      <stop
         offset=".68"
         style="stop-color:#2735c6;stop-opacity:1"
         id="stop2559" />
      <stop
         offset=".688"
         style="stop-color:#2635c6;stop-opacity:1"
         id="stop2561" />
      <stop
         offset=".695"
         style="stop-color:#2536c6;stop-opacity:1"
         id="stop2563" />
      <stop
         offset=".703"
         style="stop-color:#2536c5;stop-opacity:1"
         id="stop2565" />
      <stop
         offset=".711"
         style="stop-color:#2436c5;stop-opacity:1"
         id="stop2567" />
      <stop
         offset=".719"
         style="stop-color:#2337c4;stop-opacity:1"
         id="stop2569" />
      <stop
         offset=".727"
         style="stop-color:#2337c4;stop-opacity:1"
         id="stop2571" />
      <stop
         offset=".734"
         style="stop-color:#2238c3;stop-opacity:1"
         id="stop2573" />
      <stop
         offset=".742"
         style="stop-color:#2138c3;stop-opacity:1"
         id="stop2575" />
      <stop
         offset=".75"
         style="stop-color:#2138c2;stop-opacity:1"
         id="stop2577" />
      <stop
         offset=".758"
         style="stop-color:#2039c2;stop-opacity:1"
         id="stop2579" />
      <stop
         offset=".766"
         style="stop-color:#1f39c2;stop-opacity:1"
         id="stop2581" />
      <stop
         offset=".773"
         style="stop-color:#1f39c1;stop-opacity:1"
         id="stop2583" />
      <stop
         offset=".781"
         style="stop-color:#1e3ac1;stop-opacity:1"
         id="stop2585" />
      <stop
         offset=".789"
         style="stop-color:#1d3ac0;stop-opacity:1"
         id="stop2587" />
      <stop
         offset=".797"
         style="stop-color:#1d3ac0;stop-opacity:1"
         id="stop2589" />
      <stop
         offset=".805"
         style="stop-color:#1c3bbf;stop-opacity:1"
         id="stop2591" />
      <stop
         offset=".813"
         style="stop-color:#1b3bbf;stop-opacity:1"
         id="stop2593" />
      <stop
         offset=".82"
         style="stop-color:#1b3bbf;stop-opacity:1"
         id="stop2595" />
      <stop
         offset=".828"
         style="stop-color:#1a3cbe;stop-opacity:1"
         id="stop2597" />
      <stop
         offset=".836"
         style="stop-color:#193cbe;stop-opacity:1"
         id="stop2599" />
      <stop
         offset=".844"
         style="stop-color:#193dbd;stop-opacity:1"
         id="stop2601" />
      <stop
         offset=".852"
         style="stop-color:#183dbd;stop-opacity:1"
         id="stop2603" />
      <stop
         offset=".859"
         style="stop-color:#173dbc;stop-opacity:1"
         id="stop2605" />
      <stop
         offset=".867"
         style="stop-color:#173ebc;stop-opacity:1"
         id="stop2607" />
      <stop
         offset=".875"
         style="stop-color:#163ebc;stop-opacity:1"
         id="stop2609" />
      <stop
         offset=".883"
         style="stop-color:#153ebb;stop-opacity:1"
         id="stop2611" />
      <stop
         offset=".891"
         style="stop-color:#153fbb;stop-opacity:1"
         id="stop2613" />
      <stop
         offset=".898"
         style="stop-color:#143fba;stop-opacity:1"
         id="stop2615" />
      <stop
         offset=".906"
         style="stop-color:#143fba;stop-opacity:1"
         id="stop2617" />
      <stop
         offset=".914"
         style="stop-color:#1340b9;stop-opacity:1"
         id="stop2619" />
      <stop
         offset=".922"
         style="stop-color:#1240b9;stop-opacity:1"
         id="stop2621" />
      <stop
         offset=".93"
         style="stop-color:#1240b8;stop-opacity:1"
         id="stop2623" />
      <stop
         offset=".938"
         style="stop-color:#1141b8;stop-opacity:1"
         id="stop2625" />
      <stop
         offset=".945"
         style="stop-color:#1041b8;stop-opacity:1"
         id="stop2627" />
      <stop
         offset=".953"
         style="stop-color:#1042b7;stop-opacity:1"
         id="stop2629" />
      <stop
         offset=".961"
         style="stop-color:#0f42b7;stop-opacity:1"
         id="stop2631" />
      <stop
         offset=".969"
         style="stop-color:#0e42b6;stop-opacity:1"
         id="stop2633" />
      <stop
         offset=".977"
         style="stop-color:#0e43b6;stop-opacity:1"
         id="stop2635" />
      <stop
         offset=".984"
         style="stop-color:#0d43b5;stop-opacity:1"
         id="stop2637" />
      <stop
         offset=".992"
         style="stop-color:#0c43b5;stop-opacity:1"
         id="stop2639" />
      <stop
         offset="1"
         style="stop-color:#0c44b5;stop-opacity:1"
         id="stop2641" />
    </linearGradient>
    <clipPath
       id="clip2">
      <rect
         width="1537"
         height="375"
         x="0"
         y="0"
         id="rect2644" />
    </clipPath>
    <g
       id="surface5"
       clip-path="url(#clip2)">
      <g
         clip-path="url(#clip3)"
         clip-rule="nonzero"
         id="g2655">
        <g
           clip-path="url(#clip4)"
           clip-rule="nonzero"
           id="g2653">
          <g
             clip-path="url(#clip5)"
             clip-rule="nonzero"
             id="g2651">
            <g
               clip-path="url(#clip6)"
               clip-rule="nonzero"
               id="g2649">
              <path
                 style="stroke:none;fill-rule:nonzero;fill:url(#linear0)"
                 d="M -178.140625 129.199219 L 1007.527344 -730.320312 L 1715.140625 245.800781 L 529.472656 1105.320312 Z M -178.140625 129.199219"
                 id="path2647" />
            </g>
          </g>
        </g>
      </g>
    </g>
  </defs>
  <g
     inkscape:groupmode="layer"
     id="layer4"
     inkscape:label="Layer 1" />
  <path
     d="m -78.355172,192.40439 c -1.164121,8.20776 -1.964442,16.46181 -1.964442,24.80245 0,55.56953 26.473882,108.31654 73.6870312,155.95761 228.3136828,11.54102 537.2363028,9.97594 609.0844928,6.70687 85.34479,-3.88286 317.48819,-20.84046 355.04126,-28.54791 37.5528,-7.70744 16.69113,-60.12143 16.69113,-60.12143 -323.93701,0 -484.10001,-143.00979 -1052.539472,-98.79759 z"
     fill="#53dc92"
     id="path2311"
     style="stroke-width:1.11119" />
  <path
     d="m 974.18091,291.20198 c -323.93362,0 -484.09662,-143.00979 -1052.536082,-98.79908 -0.191895,1.34556 -0.152114,2.71947 -0.320787,4.06804 502.137349,-39.95751 650.943399,111.75884 945.407029,111.75884 0,0 11.04604,33.1834 1.3196,53.01582 42.8674,-3.7813 76.97438,-7.36249 89.4425,-9.92219 37.54938,-7.70744 16.68774,-60.12143 16.68774,-60.12143 z"
     fill="#74ff9e"
     id="path2313"
     style="stroke-width:1.11119" />
  <path
     d="M 1611.006,241.88234 C 1062.3005,242.1183 854.38203,340.5321 411.27446,340.5321 v 83.24527 l 757.04744,129.95596 c 249.648,-60.93832 423.6252,-176.88018 442.6841,-311.85099 z"
     fill="#52c883"
     id="path2315"
     style="stroke-width:1.11119" />
  <path
     d="m 411.27446,340.53357 v 27.29942 c 35.26105,6.57097 34.50038,9.14112 100.29981,9.14112 195.98289,0 560.12873,-100.6733 720.46023,-117.47111 -298.06537,28.36422 -496.50878,81.03057 -820.76004,81.03057 z"
     fill="#6bee97"
     id="path2317"
     style="stroke-width:1.11119" />
  <path
     d="m -56.600598,307.01116 c 89.491992,167.7958 423.856638,292.50693 822.916218,292.50693 31.25267,0 62.07218,-0.82138 92.44859,-2.31178 43.15187,-53.43546 102.14173,-158.01254 102.14173,-158.01254 -218.48802,0 -455.74754,-135.65925 -1013.914971,-135.65925 z"
     fill="#34be69"
     id="path2319"
     style="stroke-width:1.11119" />
  <path
     d="M 943.62612,438.86674 C 729.7184,432.10608 490.48776,303.536 -53.009031,303.536 l -3.591567,3.47516 c 2.023996,3.79474 4.312535,7.5402 6.584565,11.29012 388.817203,1.35302 580.027773,120.5968 993.688453,120.5968 z"
     fill="#74ff9e"
     id="path2321"
     style="stroke-width:1.11119" />
  <path
     d="m 766.31562,599.51809 c 351.38008,0 652.71948,-96.67097 780.81918,-234.31945 h -16.1158 c -483.4319,0 -824.28533,171.6682 -1225.67648,172.61352 132.66711,38.97633 290.89847,61.70593 460.9731,61.70593 z"
     fill="#43ab5f"
     id="path2325"
     style="stroke-width:1.11119" />
  <path
     d="m 159.6221,194.39061 a 9.1674715,4.1397141 0 0 1 -9.17412,-4.13969 v -44.59006 a 9.1674715,4.1397141 0 0 1 9.17412,-4.1397 9.1674715,4.1397141 0 0 1 9.17408,4.1397 v 44.59006 a 9.1707787,4.1412075 0 0 1 -9.17408,4.13969 z"
     fill="#53dc92"
     id="path2333"
     style="stroke-width:1.11119" />
  <path
     d="m 216.04567,142.47544 c 0,14.07234 -25.26346,25.48044 -56.4269,25.48044 -31.16343,0 -56.42691,-11.4081 -56.42691,-25.48044 0,-14.07234 25.26348,-57.330244 56.42691,-57.330244 31.16344,0 56.4269,43.257904 56.4269,57.330244 z"
     fill="#53dc92"
     id="path2335"
     style="stroke-width:1.11119" />
  <path
     d="m 1283.6724,274.64911 a 14.756586,6.6635656 0 0 1 -14.7629,-6.66059 v -71.74607 a 14.75328,6.6620722 0 0 1 14.7629,-6.66058 14.756586,6.6635656 0 0 1 14.7633,6.66058 v 71.74607 a 14.756586,6.6635656 0 0 1 -14.7633,6.66059 z"
     fill="#52c883"
     id="path2337"
     style="stroke-width:1.11119" />
  <path
     d="m 1374.4576,191.11858 c 0,22.64148 -40.6482,40.99691 -90.7885,40.99691 -50.1398,0 -90.7882,-18.35543 -90.7882,-40.99691 0,-22.6415 40.6484,-92.244538 90.7882,-92.244538 50.1403,0 90.7885,69.601558 90.7885,92.244538 z m 87.3921,75.80366 a 9.2435363,4.1740623 0 0 1 -9.2505,-4.17258 v -44.94995 c 0,-2.30431 4.1376,-4.17255 9.2505,-4.17255 5.1126,0 9.2498,1.86824 9.2498,4.17255 v 44.94995 a 9.2468436,4.1755557 0 0 1 -9.2498,4.17258 z"
     fill="#52c883"
     id="path2339"
     style="stroke-width:1.11119" />
  <path
     d="m 1518.7262,214.58889 c 0,14.18585 -25.4651,25.68506 -56.8799,25.68506 -31.4147,0 -56.8802,-11.49921 -56.8802,-25.68506 0,-14.18582 25.4655,-57.79172 56.8802,-57.79172 31.4148,0 56.8799,43.6059 56.8799,57.79172 z"
     fill="#52c883"
     id="path2341"
     style="stroke-width:1.11119" />
  <path
     d="m 540.17797,354.66864 a 9.4684238,4.2756138 0 0 1 -9.47172,-4.27413 v -46.03564 a 9.4717309,4.2771071 0 0 1 18.94344,0 v 46.03564 a 9.4684238,4.2756138 0 0 1 -9.47172,4.27413 z"
     fill="#6bee97"
     id="path2343"
     style="stroke-width:1.11119" />
  <path
     d="m 598.4304,301.07189 c 0,14.52783 -26.08029,26.30629 -58.25573,26.30629 -32.17214,0 -58.25577,-11.77696 -58.25577,-26.30629 0,-14.52785 26.08034,-59.18807 58.25577,-59.18807 32.17214,-10e-4 58.25573,44.65875 58.25573,59.18807 z"
     fill="#6bee97"
     id="path2345"
     style="stroke-width:1.11119" />
  <path
     d="m 267.83926,197.68955 a 5.6949445,2.5716406 0 0 1 -5.69825,-2.57015 v -27.69069 c 0,-1.42022 2.54981,-2.57014 5.69825,-2.57014 3.14841,0 5.69825,1.15142 5.69825,2.57014 v 27.69069 c 0,1.42023 -2.54984,2.57015 -5.69825,2.57015 z"
     fill="#74ff9e"
     id="path2347"
     style="stroke-width:1.11119" />
  <path
     d="m 302.8787,165.45145 c 0,8.7394 -15.6892,15.82261 -35.03944,15.82261 -19.35026,0 -35.03947,-7.0847 -35.03947,-15.82261 0,-8.73938 15.68921,-35.60124 35.03947,-35.60124 19.35024,0 35.03944,26.86334 35.03944,35.60124 z"
     fill="#74ff9e"
     id="path2349"
     style="stroke-width:1.11119" />
  <path
     d="m 1174.1976,193.59871 c -2.7638,1.5335 -6.0336,1.222 -8.39,-0.073 -0.5881,-0.32048 -1.1212,-0.68822 -1.5994,-1.10323 -0.239,-0.20752 -0.4953,-0.58196 -0.8087,-0.69251 -0.5317,-0.19551 -1.0489,0.38137 -1.3707,0.691 -1.0009,0.92652 -2.6087,1.63964 -3.9866,1.4695 -1.2313,-0.14746 -2.0105,-1.08021 -2.1891,-2.09964 -0.2193,-1.1497 0.2967,-2.34504 0.8728,-3.45984 -0.6438,0.11565 -1.49,0.141 -1.846,-0.32947 -0.3601,-0.48348 -0.057,-1.18969 0.33,-1.67977 0.2113,-0.27251 0.4547,-0.49823 0.7337,-0.72153 -1.2592,-0.62749 -2.5315,-1.40888 -2.8865,-2.71443 -0.3225,-1.20134 0.2123,-2.50381 1.5907,-3.22615 0.7049,-0.36648 1.5334,-0.61618 2.3202,-0.66471 0.6325,-0.0399 1.9533,0.39416 2.3948,-0.25797 0.2266,-0.33528 0.2182,-0.86498 0.3141,-1.22823 0.073,-0.26918 0.1574,-0.5567 0.266,-0.82345 0.2242,-0.62229 0.5196,-1.23973 0.8786,-1.82098 1.4163,-2.33273 4.2592,-4.33897 7.2619,-4.26875 1.5072,0.026 2.1678,0.96975 2.6202,2.08428 0.4767,1.19271 0.3764,2.43545 -0.3529,3.67367 -1.0374,1.75922 -2.1414,3.58399 -3.536,5.20417 0.514,-0.0288 0.9148,0.13868 1.1982,0.43208 1.3986,-0.65724 2.8288,-1.32504 3.9636,-2.32534 1.1937,-1.03455 1.7449,-2.28489 2.2244,-3.59747 0.1197,-0.34252 0.7176,-0.26998 0.5979,0.0725 -0.4872,1.34394 -1.0577,2.64397 -2.2393,3.71759 -1.209,1.09726 -2.7335,1.85431 -4.2583,2.55392 0.1088,0.23693 0.1743,0.50275 0.1884,0.77147 1.0641,0.002 2.0076,-0.21416 3.0738,-0.42861 0.7857,-0.16332 1.6004,-0.17809 2.3448,-0.0829 1.5087,0.19818 2.7998,0.87246 3.6746,1.88823 0.2197,0.25718 -0.3234,0.58365 -0.5431,0.32647 -0.8788,-1.02878 -2.2565,-1.6452 -3.8197,-1.7387 -0.9022,-0.0422 -1.747,0.15542 -2.6432,0.35588 -0.7343,0.16048 -1.4341,0.20855 -2.1658,0.20981 -0.1188,0.45732 -0.3999,0.89724 -0.8799,1.20252 0.7846,0.16806 1.5656,0.38054 2.3232,0.62964 0.8567,0.28777 1.7059,0.60686 2.5392,0.93126 0.7382,0.29881 1.5513,0.55809 2.1759,0.99581 1.0505,0.74079 1.4799,1.94941 1.5572,3.14683 0.04,0.57654 0.018,1.17425 -0.3891,1.714 -0.3437,0.51856 -0.9454,0.93666 -1.5399,1.26602 z m -7.7599,-0.39992 c 2.2761,1.14926 5.4894,1.33577 7.9674,-0.33187 0.6922,-0.46298 1.127,-0.96895 1.1447,-1.69454 0.026,-0.58469 -0.069,-1.17137 -0.2556,-1.71318 -0.2028,-0.59392 -0.5435,-1.12711 -1.069,-1.52623 -0.5015,-0.37835 -1.1639,-0.60187 -1.7791,-0.84133 -2.4486,-0.97608 -4.9762,-1.92565 -7.8288,-2.01754 -0.02,-0.007 -0.052,0.003 -0.071,-0.005 -0.5091,0.60292 -1.3632,1.10589 -2.0803,1.43328 -0.9299,0.42772 -1.9086,0.69906 -2.8791,0.99649 -0.7181,0.21258 -1.4398,0.46958 -2.1818,0.66138 -0.011,0.0183 -0.01,0.0313 -0.019,0.0497 -0.7089,1.30339 -1.4119,2.8494 -0.7209,4.11406 0.755,1.35826 2.6602,1.20722 4.1322,0.33822 0.8384,-0.49766 1.7484,-1.88298 2.8834,-1.42971 0.5001,0.20613 0.8683,0.71569 1.2625,1.02936 0.4776,0.3576 0.9787,0.67855 1.4951,0.93678 z m 0.3124,-8.49612 c 1.823,-0.52637 1.3653,-3.22235 -0.5351,-2.49723 -0.4353,0.44858 -0.8945,0.87636 -1.3776,1.28341 0.024,0.0208 0.048,0.0416 0.06,0.0806 0.1454,0.35415 0.1086,0.68315 -0.019,0.99962 0.6015,0.0281 1.2111,0.0823 1.7972,0.17313 0.027,-0.0236 0.043,-0.0289 0.075,-0.0395 z m -5.9386,-0.65228 c 0.3029,0.74739 0.5743,1.50536 0.7984,2.27923 1.2459,-0.47634 3.1485,-1.41806 2.6879,-2.55866 l -0.012,-0.0391 c -0.039,-0.0155 -0.079,-0.0309 -0.1073,-0.0647 -1.089,-0.13777 -2.2462,0.0641 -3.3669,0.38318 z m -1.4502,3.00619 c 0.5564,-0.17237 1.1009,-0.32683 1.6531,-0.51244 -0.2281,-0.78688 -0.4995,-1.54485 -0.8065,-2.30526 -0.3353,0.0984 -0.6666,0.20974 -0.9939,0.33409 -0.2052,0.0689 -0.4102,0.13787 -0.5955,0.2145 0.2001,0.75313 0.4476,1.49036 0.7423,2.21168 0.01,0.013 0.01,0.0261 0,0.0574 z m -1.1323,0.33742 c 0.1736,-0.0583 0.3511,-0.10368 0.5405,-0.16731 -0.01,-0.013 -0.01,-0.0261 -0.028,-0.0338 -0.275,-0.71359 -0.5224,-1.45082 -0.7343,-2.18563 -0.4337,0.17456 -0.8393,0.38285 -1.2368,0.61723 -0.5981,0.37373 -1.9222,1.43767 -1.3434,2.06352 0.5544,0.54771 2.0996,-0.0868 2.802,-0.29407 z m 1.2051,-3.45636 c 1.6133,-0.5279 3.3574,-1.02772 5.0009,-0.78851 2.3687,-1.96197 3.949,-4.5513 5.4115,-7.01476 0.7176,-1.21991 0.6917,-2.4202 0.1443,-3.56034 -0.2858,-0.58045 -0.6432,-1.22313 -1.3922,-1.38881 -0.6023,-0.14293 -1.3097,-0.0635 -1.9494,0.0651 -2.9655,0.6081 -5.1333,2.93435 -6.0702,5.35067 -0.213,0.54653 -0.3705,1.10324 -0.4807,1.644 -0.103,0.45204 -0.2024,0.85968 -0.6946,1.12585 -0.5237,0.27679 -1.0936,0.23805 -1.6162,0.18341 -0.7403,-0.0822 -1.4279,0.005 -2.1694,0.25418 -1.5146,0.50908 -2.3197,1.67207 -1.9411,2.94096 0.3581,1.20378 1.6376,1.89637 2.8092,2.4669 0.8694,-0.56569 1.9382,-0.9393 2.9479,-1.27869 z"
     fill="#66a771"
     id="path174"
     style="stroke-width:0.0294319" />
  <path
     d="m 1174.4051,192.86692 c -2.4739,1.68068 -5.6913,1.48113 -7.9674,0.33187 -0.5204,-0.27125 -1.0175,-0.57918 -1.4595,-0.93435 -0.41,-0.30839 -0.7664,-0.83627 -1.2624,-1.02936 -1.1351,-0.45329 -2.0451,0.93205 -2.8834,1.42972 -1.4721,0.86899 -3.3773,1.02001 -4.1323,-0.33825 -0.691,-1.26464 0.012,-2.81066 0.7209,-4.11406 0.011,-0.0183 0.01,-0.0313 0.019,-0.0497 0.7262,-0.18654 1.4479,-0.4435 2.1819,-0.66136 0.9705,-0.29742 1.9689,-0.56109 2.879,-0.99651 0.7131,-0.34041 1.5713,-0.83037 2.0804,-1.43329 0.02,0.007 0.039,0.0154 0.071,0.005 2.8487,0.0788 5.392,1.02314 7.8289,2.01756 0.6151,0.23944 1.2618,0.46828 1.7791,0.84133 0.5254,0.3991 0.8661,0.93229 1.0689,1.5262 0.1865,0.54184 0.2824,1.12852 0.2557,1.71322 -0.053,0.72316 -0.4922,1.21608 -1.1804,1.69211 z"
     fill="#bedebc"
     id="path176"
     style="stroke-width:0.0294319" />
  <path
     d="m 1166.215,182.20544 c 1.9004,-0.72512 2.3581,1.97086 0.5351,2.49723 -0.032,0.0105 -0.063,0.0212 -0.075,0.0395 -0.5862,-0.0909 -1.18,-0.15033 -1.7972,-0.17316 0.1278,-0.31646 0.1647,-0.64547 0.019,-0.99962 -0.01,-0.0261 -0.036,-0.0598 -0.06,-0.0805 0.4989,-0.41235 0.9581,-0.84016 1.3776,-1.28341 z"
     fill="#f1a73b"
     id="path178"
     style="stroke-width:0.0294319" />
  <path
     d="m 1161.6099,186.32962 c -0.2241,-0.77388 -0.4955,-1.53184 -0.7984,-2.27923 1.1207,-0.3191 2.2779,-0.52095 3.3669,-0.38318 0.024,0.0207 0.067,0.0492 0.1073,0.0647 l 0.012,0.0391 c 0.4565,1.12759 -1.442,2.08233 -2.688,2.55867 z m -0.5996,0.20151 c -0.5522,0.18561 -1.0927,0.35291 -1.653,0.51244 l -0.016,-0.0521 c -0.279,-0.72662 -0.5264,-1.46383 -0.7423,-2.21166 0.2051,-0.0689 0.4061,-0.15086 0.5955,-0.2145 l 0.9939,-0.33408 c 0.3228,0.7551 0.5982,1.5261 0.8222,2.29995 z m -2.2408,0.69561 c -0.1735,0.0584 -0.3511,0.10367 -0.5405,0.16731 -0.7181,0.2126 -2.2475,0.8418 -2.7861,0.2888 -0.5946,-0.62056 0.7452,-1.6898 1.3433,-2.06353 0.3935,-0.24741 0.8032,-0.44269 1.2369,-0.61723 0.2001,0.75313 0.4435,1.47734 0.7342,2.18563 z"
     fill="#d6395d"
     id="path180"
     style="stroke-width:0.0294319" />
  <path
     d="m 1164.4193,183.15443 c -1.6278,-0.24451 -3.3719,0.25533 -5.001,0.78852 -0.9939,0.33408 -2.0627,0.70767 -2.9678,1.27097 -1.1716,-0.57054 -2.4312,-1.25541 -2.8092,-2.46692 -0.3785,-1.26891 0.4266,-2.43185 1.9411,-2.94093 0.7416,-0.24924 1.4291,-0.3364 2.1694,-0.2542 0.5226,0.0546 1.0966,0.10641 1.6163,-0.1834 0.508,-0.27149 0.6074,-0.67913 0.6946,-1.12586 0.1219,-0.55909 0.2794,-1.11579 0.4807,-1.64402 0.9369,-2.41628 3.089,-4.73724 6.0701,-5.35065 0.6397,-0.12867 1.3471,-0.20809 1.9495,-0.0651 0.749,0.16565 1.1064,0.80834 1.3921,1.38878 0.5434,1.1271 0.5693,2.32742 -0.1442,3.56037 -1.4269,2.46586 -3.0072,5.0552 -5.3916,7.02247 z"
     fill="#bedebc"
     id="path182"
     style="stroke-width:0.0294319" />
  <path
     d="m 1186.9425,144.31228 c -2.3926,2.06839 -5.5051,2.69477 -7.8901,2.22932 -0.5949,-0.11387 -1.1444,-0.28324 -1.6485,-0.5081 -0.2522,-0.11224 -0.5424,-0.36319 -0.8515,-0.37222 -0.5253,-0.0222 -0.9346,0.61317 -1.1958,0.96631 -0.8172,1.06696 -2.2328,2.11697 -3.5496,2.34767 -1.1761,0.21005 -2.0316,-0.37601 -2.3345,-1.20047 -0.3584,-0.92489 -0.032,-2.08968 0.3609,-3.20187 -0.5893,0.27493 -1.3808,0.52778 -1.7775,0.22201 -0.4025,-0.31555 -0.2116,-1.00336 0.087,-1.52886 0.1623,-0.29124 0.3609,-0.55102 0.5934,-0.8185 -1.266,-0.19344 -2.5646,-0.5152 -3.0711,-1.53652 -0.4623,-0.94086 -0.1327,-2.20257 1.0662,-3.19779 0.6135,-0.50648 1.3586,-0.94665 2.0911,-1.2032 0.5889,-0.20695 1.887,-0.19592 2.2151,-0.8751 0.1685,-0.34907 0.09,-0.8005 0.1322,-1.1378 0.033,-0.25048 0.074,-0.51992 0.1407,-0.77805 0.128,-0.59425 0.3236,-1.20374 0.5837,-1.79973 1.0209,-2.38495 3.4251,-4.87994 6.2548,-5.64 1.4191,-0.38951 2.1647,0.23845 2.7375,1.06945 0.6058,0.89144 0.6765,1.98323 0.1556,3.24309 -0.7411,1.79025 -1.536,3.65477 -2.631,5.42345 0.4789,-0.16509 0.8776,-0.1311 1.1826,0.0428 1.2266,-0.94499 2.4813,-1.90768 3.4146,-3.07447 0.984,-1.21227 1.3359,-2.43378 1.6122,-3.68898 0.067,-0.3261 0.6382,-0.42728 0.5712,-0.10124 -0.2794,1.28426 -0.6428,2.55356 -1.6103,3.79594 -0.9901,1.27011 -2.3216,2.33504 -3.661,3.35076 0.1337,0.17307 0.2304,0.383 0.2793,0.60934 0.9997,-0.28862 1.8572,-0.73189 2.8302,-1.20678 0.7163,-0.35449 1.4796,-0.58971 2.1914,-0.71154 1.4434,-0.24237 2.7455,-0.0175 3.7019,0.61356 0.2404,0.16025 -0.2264,0.5883 -0.4669,0.42802 -0.9619,-0.64105 -2.3376,-0.79277 -3.8183,-0.44583 -0.853,0.21027 -1.6202,0.61028 -2.4354,1.02679 -0.6685,0.33808 -1.3194,0.57044 -2.0065,0.77137 -0.051,0.42413 -0.2566,0.87771 -0.6669,1.27036 0.7592,-0.0704 1.5209,-0.10169 2.2655,-0.0953 0.8429,0.0125 1.6828,0.0538 2.5085,0.10402 0.7331,0.0543 1.5311,0.0543 2.1759,0.25855 1.0848,0.3476 1.6485,1.26549 1.8799,2.26995 0.1141,0.48291 0.1726,1.00087 -0.1382,1.57443 -0.2541,0.53809 -0.7637,1.06053 -1.2786,1.50512 z m -7.3416,1.77709 c 2.2903,0.36262 5.3331,-0.35533 7.4394,-2.46062 0.5889,-0.58567 0.9302,-1.13781 0.8505,-1.7641 -0.053,-0.50804 -0.22,-0.98455 -0.4672,-1.39769 -0.2693,-0.4533 -0.6599,-0.81693 -1.2065,-1.01518 -0.5212,-0.18709 -1.173,-0.19766 -1.7826,-0.23467 -2.4293,-0.16715 -4.9293,-0.29009 -7.6208,0.41044 -0.02,-5.8e-4 -0.048,0.0172 -0.068,0.0158 -0.3979,0.65565 -1.1338,1.31961 -1.7639,1.79586 -0.8167,0.62041 -1.7,1.12016 -2.5721,1.64005 -0.6463,0.37822 -1.2901,0.79548 -1.9616,1.16248 -0.01,0.0186 0,0.0287 -0.012,0.048 -0.493,1.31008 -0.9483,2.82633 -0.1316,3.7208 0.8892,0.95715 2.6588,0.3073 3.9261,-0.83908 0.7214,-0.65527 1.3924,-2.09039 2.5187,-2.01225 0.497,0.0399 0.9104,0.37586 1.3223,0.53681 0.496,0.17585 1.0093,0.31382 1.5285,0.39401 z m -0.8332,-7.36255 c 1.6424,-0.94881 0.855,-3.133 -0.8338,-1.99279 -0.3494,0.50308 -0.724,0.99499 -1.1238,1.47563 0.023,0.0143 0.052,0.0203 0.067,0.0531 0.1835,0.26358 0.1925,0.55555 0.1143,0.86152 0.5687,-0.14023 1.1484,-0.26031 1.711,-0.34268 0.023,-0.0271 0.036,-0.0363 0.065,-0.054 z m -5.6645,1.06357 c 0.3837,0.55735 0.7391,1.13248 1.0521,1.73414 1.1071,-0.74833 2.7693,-2.0747 2.1854,-2.92585 l -0.016,-0.0302 c -0.039,-0.002 -0.078,-0.005 -0.1093,-0.0263 -1.041,0.17945 -2.1012,0.66843 -3.1115,1.2479 z m -0.9634,2.97099 c 0.4997,-0.29954 0.9906,-0.58061 1.4847,-0.89043 -0.3186,-0.61174 -0.674,-1.18679 -1.0632,-1.75432 -0.302,0.17596 -0.5984,0.36184 -0.8893,0.55772 -0.1835,0.11511 -0.367,0.23009 -0.5309,0.34641 0.2879,0.59042 0.6181,1.15426 0.9906,1.69163 0.01,0.006 0.011,0.0198 0.01,0.0493 z m -1.0189,0.59839 c 0.1554,-0.0974 0.3161,-0.18477 0.4856,-0.29099 -0.01,-0.006 -0.011,-0.0198 -0.032,-0.0196 -0.3529,-0.5361 -0.6831,-1.09991 -0.9795,-1.67144 -0.3841,0.26792 -0.7375,0.55718 -1.0798,0.86648 -0.5122,0.48358 -1.6148,1.75644 -0.9882,2.13448 0.5937,0.31726 1.9606,-0.64787 2.5928,-1.01728 z m 0.6736,-3.28971 c 1.4454,-0.89294 3.0173,-1.79742 4.5927,-2.04153 1.9646,-2.32751 3.1055,-4.97704 4.1526,-7.48664 0.5122,-1.24088 0.3287,-2.2619 -0.3367,-3.08892 -0.3454,-0.41911 -0.7664,-0.87193 -1.4916,-0.80951 -0.5847,0.042 -1.2386,0.30333 -1.8224,0.58826 -2.7048,1.33095 -4.4324,3.91563 -4.992,6.24122 -0.1276,0.52636 -0.2017,1.04619 -0.2334,1.53948 -0.037,0.41532 -0.076,0.7916 -0.5031,1.154 -0.4553,0.3802 -0.9957,0.5027 -1.4938,0.59859 -0.7063,0.13188 -1.3405,0.39426 -2.0039,0.81032 -1.3552,0.84982 -1.9571,2.06586 -1.4332,3.0493 0.496,0.93324 1.7896,1.17695 2.9656,1.34566 0.7417,-0.72203 1.696,-1.33406 2.5994,-1.90058 z"
     fill="#66a771"
     id="path174-7"
     style="stroke-width:0.0269867" />
  <path
     d="m 1187.0403,143.62875 c -2.1007,2.11532 -5.1491,2.82324 -7.4394,2.46062 -0.5248,-0.0901 -1.0325,-0.21807 -1.4948,-0.40155 -0.4258,-0.15248 -0.8333,-0.50288 -1.3223,-0.53678 -1.1262,-0.0782 -1.7972,1.35689 -2.5186,2.01216 -1.2674,1.14646 -3.0369,1.79622 -3.9261,0.83908 -0.8168,-0.89448 -0.3613,-2.41077 0.1315,-3.72073 0.01,-0.0186 0,-0.0289 0.012,-0.048 0.6573,-0.35811 1.3011,-0.77536 1.9616,-1.16248 0.8721,-0.51989 1.775,-1.01846 2.572,-1.63997 0.6246,-0.48635 1.3658,-1.14051 1.764,-1.79595 0.02,5.9e-4 0.039,0.002 0.068,-0.0158 2.686,-0.71062 5.2001,-0.59649 7.6209,-0.4105 0.6095,0.0371 1.2472,0.0565 1.7825,0.23474 0.5466,0.19824 0.937,0.56221 1.2065,1.01516 0.247,0.41322 0.4149,0.8895 0.4673,1.39764 0.046,0.63388 -0.301,1.17606 -0.8843,1.77176 z"
     fill="#bedebc"
     id="path176-9"
     style="stroke-width:0.0269867" />
  <path
     d="m 1177.9339,136.73403 c 1.6888,-1.14021 2.4762,1.04398 0.8338,1.99279 -0.028,0.0178 -0.057,0.0356 -0.065,0.054 -0.5626,0.0823 -1.1282,0.19352 -1.711,0.34263 0.078,-0.30607 0.069,-0.59787 -0.1144,-0.86151 -0.011,-0.0198 -0.041,-0.042 -0.067,-0.0531 0.414,-0.48951 0.7885,-0.98137 1.1237,-1.47558 z"
     fill="#f1a73b"
     id="path178-3"
     style="stroke-width:0.0269867" />
  <path
     d="m 1174.1553,141.52453 c -0.313,-0.60166 -0.6684,-1.17679 -1.0521,-1.73414 1.0103,-0.57947 2.0705,-1.06854 3.1115,-1.2479 0.023,0.0142 0.07,0.0233 0.1093,0.0263 l 0.017,0.0302 c 0.5782,0.84112 -1.0784,2.17751 -2.1855,2.9259 z m -0.5364,0.3364 c -0.4941,0.30982 -0.9795,0.60074 -1.4846,0.89036 l -0.023,-0.0398 c -0.3585,-0.54612 -0.6886,-1.11002 -0.9906,-1.69154 0.1835,-0.11503 0.3615,-0.24028 0.5309,-0.34642 l 0.8893,-0.55771 c 0.4033,0.55855 0.7642,1.14377 1.0773,1.74542 z m -2.0124,1.20786 c -0.1553,0.0975 -0.3161,0.18477 -0.4855,0.29099 -0.6463,0.37826 -1.9994,1.33497 -2.5786,1.00842 -0.6404,-0.36964 0.4759,-1.65093 0.988,-2.13442 0.3369,-0.31947 0.6958,-0.59862 1.0799,-0.86654 0.2879,0.59042 0.6125,1.14424 0.9796,1.67144 z"
     fill="#d6395d"
     id="path180-8"
     style="stroke-width:0.0269867" />
  <path
     d="m 1176.373,138.03743 c -1.5612,0.23521 -3.1331,1.1397 -4.5926,2.04144 -0.8893,0.55771 -1.8436,1.16965 -2.6189,1.89929 -1.1762,-0.16857 -2.4501,-0.41113 -2.9658,-1.3456 -0.5238,-0.98343 0.078,-2.19951 1.4332,-3.04919 0.6635,-0.41612 1.2976,-0.67847 2.0039,-0.8104 0.4981,-0.0959 1.0441,-0.20837 1.4938,-0.59851 0.4411,-0.37139 0.4804,-0.74769 0.5032,-1.15418 0.04,-0.51219 0.1144,-1.03201 0.2334,-1.53938 0.5596,-2.3256 2.2732,-4.90152 4.9919,-6.24124 0.5838,-0.28494 1.2377,-0.54622 1.8224,-0.58825 0.7255,-0.0628 1.1464,0.39017 1.4916,0.80948 0.6599,0.81701 0.8433,1.83804 0.3367,3.08895 -1.0132,2.50189 -2.1542,5.15152 -4.1329,7.48785 z"
     fill="#bedebc"
     id="path182-0"
     style="stroke-width:0.0269867" />
</svg>
