<?xml version="1.0" encoding="UTF-8" standalone="no"?>
<svg
   width="2050"
   height="500"
   version="1.2"
   viewBox="0 0 1537.5 375"
   id="svg303"
   sodipodi:docname="intro_r.svg"
   inkscape:version="1.2.1 (9c6d41e, 2022-07-14)"
   xmlns:inkscape="http://www.inkscape.org/namespaces/inkscape"
   xmlns:sodipodi="http://sodipodi.sourceforge.net/DTD/sodipodi-0.dtd"
   xmlns="http://www.w3.org/2000/svg"
   xmlns:svg="http://www.w3.org/2000/svg">
  <sodipodi:namedview
     id="namedview305"
     pagecolor="#ffffff"
     bordercolor="#000000"
     borderopacity="0.25"
     inkscape:showpageshadow="2"
     inkscape:pageopacity="0.0"
     inkscape:pagecheckerboard="0"
     inkscape:deskcolor="#d1d1d1"
     showgrid="false"
     inkscape:zoom="0.27645297"
     inkscape:cx="960.38035"
     inkscape:cy="41.598396"
     inkscape:window-width="1440"
     inkscape:window-height="777"
     inkscape:window-x="0"
     inkscape:window-y="25"
     inkscape:window-maximized="1"
     inkscape:current-layer="svg303" />
  <defs
     id="defs296">
    <rect
       x="67.79661"
       y="48.728814"
       width="379.23729"
       height="116.52542"
       id="rect621" />
    <clipPath
       id="clip1">
      <path
         d="M 0 0.0625 L 1537 0.0625 L 1537 374.9375 L 0 374.9375 Z M 0 0.0625"
         id="path2" />
    </clipPath>
    <filter
       id="alpha"
       width="1"
       height="1"
       x="0"
       y="0"
       filterUnits="objectBoundingBox">
      <feColorMatrix
         in="SourceGraphic"
         type="matrix"
         values="0 0 0 0 1 0 0 0 0 1 0 0 0 0 1 0 0 0 1 0"
         id="feColorMatrix5" />
    </filter>
    <mask
       id="mask0">
      <g
         filter="url(#alpha)"
         id="g10">
        <rect
           width="1537.5"
           height="375"
           x="0"
           y="0"
           style="fill:#000;fill-opacity:.8588;stroke:none"
           id="rect8" />
      </g>
    </mask>
    <clipPath
       id="clip3">
      <path
         d="M 0 94 L 1537 94 L 1537 374.9375 L 0 374.9375 Z M 0 94"
         id="path13" />
    </clipPath>
    <clipPath
       id="clip4">
      <path
         d="M 1908.890625 330.027344 L 549.304688 1315.628906 L -371.585938 45.304688 L 988 -940.292969 Z M 1908.890625 330.027344"
         id="path16" />
    </clipPath>
    <clipPath
       id="clip5">
      <path
         d="M 1908.890625 330.027344 L 549.304688 1315.628906 L -371.585938 45.304688 L 988 -940.292969 Z M 1908.890625 330.027344"
         id="path19" />
    </clipPath>
    <clipPath
       id="clip6">
      <path
         d="M -174.660156 212.640625 C -166.574219 323.9375 480.328125 651.382812 696.011719 703.554688 C 951.542969 765.28125 1257.9375 763.484375 1486.289062 611.332031 C 1907.5625 330.5 1307.699219 -72.1875 851.945312 167.691406 C 457.851562 375.027344 -196.097656 -82.277344 -174.660156 212.640625 Z M -174.660156 212.640625"
         id="path22" />
    </clipPath>
    <linearGradient
       id="linear0"
       x1="-127.843"
       x2="-6.589"
       y1="-261.95"
       y2="-261.95"
       gradientTransform="matrix(5.835812,8.050207,8.051917,-5.837052,3198.654414,-748.726126)"
       gradientUnits="userSpaceOnUse">
      <stop
         offset="0"
         style="stop-color:#5e17eb;stop-opacity:1"
         id="stop25" />
      <stop
         offset=".016"
         style="stop-color:#5e17eb;stop-opacity:1"
         id="stop27" />
      <stop
         offset=".023"
         style="stop-color:#5e17eb;stop-opacity:1"
         id="stop29" />
      <stop
         offset=".031"
         style="stop-color:#5d17ea;stop-opacity:1"
         id="stop31" />
      <stop
         offset=".039"
         style="stop-color:#5c18ea;stop-opacity:1"
         id="stop33" />
      <stop
         offset=".047"
         style="stop-color:#5c18ea;stop-opacity:1"
         id="stop35" />
      <stop
         offset=".055"
         style="stop-color:#5b19e9;stop-opacity:1"
         id="stop37" />
      <stop
         offset=".063"
         style="stop-color:#5a19e9;stop-opacity:1"
         id="stop39" />
      <stop
         offset=".07"
         style="stop-color:#5a19e8;stop-opacity:1"
         id="stop41" />
      <stop
         offset=".078"
         style="stop-color:#591ae8;stop-opacity:1"
         id="stop43" />
      <stop
         offset=".086"
         style="stop-color:#581ae7;stop-opacity:1"
         id="stop45" />
      <stop
         offset=".094"
         style="stop-color:#581ae7;stop-opacity:1"
         id="stop47" />
      <stop
         offset=".102"
         style="stop-color:#571be7;stop-opacity:1"
         id="stop49" />
      <stop
         offset=".109"
         style="stop-color:#571be6;stop-opacity:1"
         id="stop51" />
      <stop
         offset=".117"
         style="stop-color:#561be6;stop-opacity:1"
         id="stop53" />
      <stop
         offset=".125"
         style="stop-color:#551ce5;stop-opacity:1"
         id="stop55" />
      <stop
         offset=".133"
         style="stop-color:#551ce5;stop-opacity:1"
         id="stop57" />
      <stop
         offset=".141"
         style="stop-color:#541ce4;stop-opacity:1"
         id="stop59" />
      <stop
         offset=".148"
         style="stop-color:#531de4;stop-opacity:1"
         id="stop61" />
      <stop
         offset=".156"
         style="stop-color:#531de3;stop-opacity:1"
         id="stop63" />
      <stop
         offset=".164"
         style="stop-color:#521ee3;stop-opacity:1"
         id="stop65" />
      <stop
         offset=".172"
         style="stop-color:#511ee3;stop-opacity:1"
         id="stop67" />
      <stop
         offset=".18"
         style="stop-color:#511ee2;stop-opacity:1"
         id="stop69" />
      <stop
         offset=".188"
         style="stop-color:#501fe2;stop-opacity:1"
         id="stop71" />
      <stop
         offset=".195"
         style="stop-color:#4f1fe1;stop-opacity:1"
         id="stop73" />
      <stop
         offset=".203"
         style="stop-color:#4f1fe1;stop-opacity:1"
         id="stop75" />
      <stop
         offset=".211"
         style="stop-color:#4e20e0;stop-opacity:1"
         id="stop77" />
      <stop
         offset=".219"
         style="stop-color:#4d20e0;stop-opacity:1"
         id="stop79" />
      <stop
         offset=".227"
         style="stop-color:#4d20e0;stop-opacity:1"
         id="stop81" />
      <stop
         offset=".234"
         style="stop-color:#4c21df;stop-opacity:1"
         id="stop83" />
      <stop
         offset=".242"
         style="stop-color:#4b21df;stop-opacity:1"
         id="stop85" />
      <stop
         offset=".25"
         style="stop-color:#4b21de;stop-opacity:1"
         id="stop87" />
      <stop
         offset=".258"
         style="stop-color:#4a22de;stop-opacity:1"
         id="stop89" />
      <stop
         offset=".266"
         style="stop-color:#4922dd;stop-opacity:1"
         id="stop91" />
      <stop
         offset=".273"
         style="stop-color:#4923dd;stop-opacity:1"
         id="stop93" />
      <stop
         offset=".281"
         style="stop-color:#4823dd;stop-opacity:1"
         id="stop95" />
      <stop
         offset=".289"
         style="stop-color:#4723dc;stop-opacity:1"
         id="stop97" />
      <stop
         offset=".297"
         style="stop-color:#4724dc;stop-opacity:1"
         id="stop99" />
      <stop
         offset=".305"
         style="stop-color:#4624db;stop-opacity:1"
         id="stop101" />
      <stop
         offset=".313"
         style="stop-color:#4524db;stop-opacity:1"
         id="stop103" />
      <stop
         offset=".32"
         style="stop-color:#4525da;stop-opacity:1"
         id="stop105" />
      <stop
         offset=".328"
         style="stop-color:#4425da;stop-opacity:1"
         id="stop107" />
      <stop
         offset=".336"
         style="stop-color:#4325d9;stop-opacity:1"
         id="stop109" />
      <stop
         offset=".344"
         style="stop-color:#4326d9;stop-opacity:1"
         id="stop111" />
      <stop
         offset=".352"
         style="stop-color:#4226d9;stop-opacity:1"
         id="stop113" />
      <stop
         offset=".359"
         style="stop-color:#4126d8;stop-opacity:1"
         id="stop115" />
      <stop
         offset=".367"
         style="stop-color:#4127d8;stop-opacity:1"
         id="stop117" />
      <stop
         offset=".375"
         style="stop-color:#4027d7;stop-opacity:1"
         id="stop119" />
      <stop
         offset=".383"
         style="stop-color:#4028d7;stop-opacity:1"
         id="stop121" />
      <stop
         offset=".391"
         style="stop-color:#3f28d6;stop-opacity:1"
         id="stop123" />
      <stop
         offset=".398"
         style="stop-color:#3e28d6;stop-opacity:1"
         id="stop125" />
      <stop
         offset=".406"
         style="stop-color:#3e29d6;stop-opacity:1"
         id="stop127" />
      <stop
         offset=".414"
         style="stop-color:#3d29d5;stop-opacity:1"
         id="stop129" />
      <stop
         offset=".422"
         style="stop-color:#3c29d5;stop-opacity:1"
         id="stop131" />
      <stop
         offset=".43"
         style="stop-color:#3c2ad4;stop-opacity:1"
         id="stop133" />
      <stop
         offset=".438"
         style="stop-color:#3b2ad4;stop-opacity:1"
         id="stop135" />
      <stop
         offset=".445"
         style="stop-color:#3a2ad3;stop-opacity:1"
         id="stop137" />
      <stop
         offset=".453"
         style="stop-color:#3a2bd3;stop-opacity:1"
         id="stop139" />
      <stop
         offset=".461"
         style="stop-color:#392bd3;stop-opacity:1"
         id="stop141" />
      <stop
         offset=".469"
         style="stop-color:#382bd2;stop-opacity:1"
         id="stop143" />
      <stop
         offset=".477"
         style="stop-color:#382cd2;stop-opacity:1"
         id="stop145" />
      <stop
         offset=".484"
         style="stop-color:#372cd1;stop-opacity:1"
         id="stop147" />
      <stop
         offset=".492"
         style="stop-color:#362dd1;stop-opacity:1"
         id="stop149" />
      <stop
         offset=".5"
         style="stop-color:#362dd0;stop-opacity:1"
         id="stop151" />
      <stop
         offset=".508"
         style="stop-color:#352dd0;stop-opacity:1"
         id="stop153" />
      <stop
         offset=".516"
         style="stop-color:#342ed0;stop-opacity:1"
         id="stop155" />
      <stop
         offset=".523"
         style="stop-color:#342ecf;stop-opacity:1"
         id="stop157" />
      <stop
         offset=".531"
         style="stop-color:#332ecf;stop-opacity:1"
         id="stop159" />
      <stop
         offset=".539"
         style="stop-color:#322fce;stop-opacity:1"
         id="stop161" />
      <stop
         offset=".547"
         style="stop-color:#322fce;stop-opacity:1"
         id="stop163" />
      <stop
         offset=".555"
         style="stop-color:#312fcd;stop-opacity:1"
         id="stop165" />
      <stop
         offset=".563"
         style="stop-color:#3030cd;stop-opacity:1"
         id="stop167" />
      <stop
         offset=".57"
         style="stop-color:#3030cc;stop-opacity:1"
         id="stop169" />
      <stop
         offset=".578"
         style="stop-color:#2f30cc;stop-opacity:1"
         id="stop171" />
      <stop
         offset=".586"
         style="stop-color:#2e31cc;stop-opacity:1"
         id="stop173" />
      <stop
         offset=".594"
         style="stop-color:#2e31cb;stop-opacity:1"
         id="stop175" />
      <stop
         offset=".602"
         style="stop-color:#2d31cb;stop-opacity:1"
         id="stop177" />
      <stop
         offset=".609"
         style="stop-color:#2c32ca;stop-opacity:1"
         id="stop179" />
      <stop
         offset=".617"
         style="stop-color:#2c32ca;stop-opacity:1"
         id="stop181" />
      <stop
         offset=".625"
         style="stop-color:#2b33c9;stop-opacity:1"
         id="stop183" />
      <stop
         offset=".633"
         style="stop-color:#2b33c9;stop-opacity:1"
         id="stop185" />
      <stop
         offset=".641"
         style="stop-color:#2a33c9;stop-opacity:1"
         id="stop187" />
      <stop
         offset=".648"
         style="stop-color:#2934c8;stop-opacity:1"
         id="stop189" />
      <stop
         offset=".656"
         style="stop-color:#2934c8;stop-opacity:1"
         id="stop191" />
      <stop
         offset=".664"
         style="stop-color:#2834c7;stop-opacity:1"
         id="stop193" />
      <stop
         offset=".672"
         style="stop-color:#2735c7;stop-opacity:1"
         id="stop195" />
      <stop
         offset=".68"
         style="stop-color:#2735c6;stop-opacity:1"
         id="stop197" />
      <stop
         offset=".688"
         style="stop-color:#2635c6;stop-opacity:1"
         id="stop199" />
      <stop
         offset=".695"
         style="stop-color:#2536c6;stop-opacity:1"
         id="stop201" />
      <stop
         offset=".703"
         style="stop-color:#2536c5;stop-opacity:1"
         id="stop203" />
      <stop
         offset=".711"
         style="stop-color:#2436c5;stop-opacity:1"
         id="stop205" />
      <stop
         offset=".719"
         style="stop-color:#2337c4;stop-opacity:1"
         id="stop207" />
      <stop
         offset=".727"
         style="stop-color:#2337c4;stop-opacity:1"
         id="stop209" />
      <stop
         offset=".734"
         style="stop-color:#2238c3;stop-opacity:1"
         id="stop211" />
      <stop
         offset=".742"
         style="stop-color:#2138c3;stop-opacity:1"
         id="stop213" />
      <stop
         offset=".75"
         style="stop-color:#2138c2;stop-opacity:1"
         id="stop215" />
      <stop
         offset=".758"
         style="stop-color:#2039c2;stop-opacity:1"
         id="stop217" />
      <stop
         offset=".766"
         style="stop-color:#1f39c2;stop-opacity:1"
         id="stop219" />
      <stop
         offset=".773"
         style="stop-color:#1f39c1;stop-opacity:1"
         id="stop221" />
      <stop
         offset=".781"
         style="stop-color:#1e3ac1;stop-opacity:1"
         id="stop223" />
      <stop
         offset=".789"
         style="stop-color:#1d3ac0;stop-opacity:1"
         id="stop225" />
      <stop
         offset=".797"
         style="stop-color:#1d3ac0;stop-opacity:1"
         id="stop227" />
      <stop
         offset=".805"
         style="stop-color:#1c3bbf;stop-opacity:1"
         id="stop229" />
      <stop
         offset=".813"
         style="stop-color:#1b3bbf;stop-opacity:1"
         id="stop231" />
      <stop
         offset=".82"
         style="stop-color:#1b3bbf;stop-opacity:1"
         id="stop233" />
      <stop
         offset=".828"
         style="stop-color:#1a3cbe;stop-opacity:1"
         id="stop235" />
      <stop
         offset=".836"
         style="stop-color:#193cbe;stop-opacity:1"
         id="stop237" />
      <stop
         offset=".844"
         style="stop-color:#193dbd;stop-opacity:1"
         id="stop239" />
      <stop
         offset=".852"
         style="stop-color:#183dbd;stop-opacity:1"
         id="stop241" />
      <stop
         offset=".859"
         style="stop-color:#173dbc;stop-opacity:1"
         id="stop243" />
      <stop
         offset=".867"
         style="stop-color:#173ebc;stop-opacity:1"
         id="stop245" />
      <stop
         offset=".875"
         style="stop-color:#163ebc;stop-opacity:1"
         id="stop247" />
      <stop
         offset=".883"
         style="stop-color:#153ebb;stop-opacity:1"
         id="stop249" />
      <stop
         offset=".891"
         style="stop-color:#153fbb;stop-opacity:1"
         id="stop251" />
      <stop
         offset=".898"
         style="stop-color:#143fba;stop-opacity:1"
         id="stop253" />
      <stop
         offset=".906"
         style="stop-color:#143fba;stop-opacity:1"
         id="stop255" />
      <stop
         offset=".914"
         style="stop-color:#1340b9;stop-opacity:1"
         id="stop257" />
      <stop
         offset=".922"
         style="stop-color:#1240b9;stop-opacity:1"
         id="stop259" />
      <stop
         offset=".93"
         style="stop-color:#1240b8;stop-opacity:1"
         id="stop261" />
      <stop
         offset=".938"
         style="stop-color:#1141b8;stop-opacity:1"
         id="stop263" />
      <stop
         offset=".945"
         style="stop-color:#1041b8;stop-opacity:1"
         id="stop265" />
      <stop
         offset=".953"
         style="stop-color:#1042b7;stop-opacity:1"
         id="stop267" />
      <stop
         offset=".961"
         style="stop-color:#0f42b7;stop-opacity:1"
         id="stop269" />
      <stop
         offset=".969"
         style="stop-color:#0e42b6;stop-opacity:1"
         id="stop271" />
      <stop
         offset=".977"
         style="stop-color:#0e43b6;stop-opacity:1"
         id="stop273" />
      <stop
         offset=".984"
         style="stop-color:#0d43b5;stop-opacity:1"
         id="stop275" />
      <stop
         offset=".992"
         style="stop-color:#0c43b5;stop-opacity:1"
         id="stop277" />
      <stop
         offset="1"
         style="stop-color:#0c44b5;stop-opacity:1"
         id="stop279" />
    </linearGradient>
    <clipPath
       id="clip2">
      <rect
         width="1537"
         height="375"
         x="0"
         y="0"
         id="rect282" />
    </clipPath>
    <g
       id="surface5"
       clip-path="url(#clip2)">
      <g
         clip-path="url(#clip3)"
         clip-rule="nonzero"
         id="g293">
        <g
           clip-path="url(#clip4)"
           clip-rule="nonzero"
           id="g291">
          <g
             clip-path="url(#clip5)"
             clip-rule="nonzero"
             id="g289">
            <g
               clip-path="url(#clip6)"
               clip-rule="nonzero"
               id="g287">
              <path
                 style="stroke:none;fill-rule:nonzero;fill:url(#linear0)"
                 d="M -178.140625 129.199219 L 1007.527344 -730.320312 L 1715.140625 245.800781 L 529.472656 1105.320312 Z M -178.140625 129.199219"
                 id="path285" />
            </g>
          </g>
        </g>
      </g>
    </g>
  </defs>
  <rect
     style="fill:#aaccff;fill-rule:evenodd;stroke-width:0.757042"
     id="rect565"
     width="1490.4661"
     height="343.22037"
     x="25.423729"
     y="14.300848"
     ry="25.903421" />
  <text
     xml:space="preserve"
     transform="scale(0.75)"
     id="text619"
     style="font-size:96px;font-family:Chalkduster;-inkscape-font-specification:Chalkduster;white-space:pre;shape-inside:url(#rect621);display:inline;fill:#d7eef4" />
  <text
     xml:space="preserve"
     style="font-size:65px;font-family:Chalkduster;-inkscape-font-specification:Chalkduster;fill:#d7eef4;stroke-width:0.75"
     x="50.653561"
     y="98.051926"
     id="text627"><tspan
       sodipodi:role="line"
       id="tspan625"
       style="font-size:65px;fill:#0044aa;stroke-width:0.75"
       x="50.653561"
       y="98.051926">DevOps &amp; Full Stack Expert</tspan></text>
  <text
     xml:space="preserve"
     style="font-size:28px;font-family:Chalkduster;-inkscape-font-specification:Chalkduster;fill:#0044aa;stroke-width:0.75"
     x="52.978695"
     y="178.43114"
     id="text996"><tspan
       sodipodi:role="line"
       id="tspan994"
       style="font-size:28px;stroke-width:0.75"
       x="52.978695"
       y="178.43114">Innovative and results-driven Full Stack and Platform Engineer with over 10 </tspan><tspan
       sodipodi:role="line"
       style="font-size:28px;stroke-width:0.75"
       x="52.978695"
       y="213.43114"
       id="tspan1006">years of hands-on experience in scalable software development. </tspan></text>
  <path
     d="m 1481.0696,180.83288 c 6.7825,28.06042 10.9624,56.84655 10.7258,85.79394 -0.079,7.01511 0.079,14.43339 -2.366,21.04533 -1.9716,5.24117 -5.4417,9.83727 -9.5428,13.54641 -8.8329,7.82144 -20.1108,11.53058 -31.3886,14.03021 -13.4072,2.98344 -27.1298,4.91864 -40.0638,9.59538 0.6309,-11.44994 4.101,-22.49672 8.4386,-33.3016 13.8804,-1.4514 27.2876,-5.64434 39.6695,-12.49818 2.2083,-1.2095 0.2366,-4.75737 -1.9716,-3.46723 -11.199,6.20877 -23.2654,10.15981 -35.884,11.69184 3.2335,-7.57954 6.7825,-14.99782 9.8583,-22.33545 0.4732,-1.04824 0.8675,-2.09647 1.3407,-3.14471 6.5458,0.56444 12.7763,-1.4514 18.5335,-4.5961 5.5206,-3.06407 11.5144,-6.77321 15.6943,-11.69185 1.6562,-1.9352 -1.1042,-4.838 -2.7603,-2.82217 -3.7067,4.35421 -8.833,7.49891 -13.6438,10.32108 -5.0474,2.9028 -10.4103,4.91864 -16.0887,4.83801 1.0253,-2.33837 2.0505,-4.67674 3.3124,-6.93448 2.5237,-4.75737 6.1515,-8.70841 9.7005,-12.65944 7.3345,-8.14398 14.669,-16.36859 22.5556,-23.94813 1.814,-1.77393 -0.9464,-4.67673 -2.7603,-2.82217 -8.202,7.98271 -15.9309,16.52985 -23.5809,25.077 -3.6278,3.78977 -7.019,7.7408 -9.4639,12.25627 -0.7098,1.29014 -1.3407,2.58027 -1.9716,3.87041 -0.3943,-3.46724 -0.2366,-7.09574 -0.2366,-10.40171 -0.079,-5.40244 -0.079,-10.80488 0,-16.20732 0,-2.58027 -3.9433,-2.58027 -3.9433,0 -0.079,6.45068 -0.079,12.82071 0.079,19.27139 0.079,4.51547 0.079,9.03094 1.5773,13.22388 -0.7886,1.9352 -1.5773,3.78977 -2.366,5.64434 -3.1546,7.257 -6.5458,14.67528 -9.7005,22.17418 -7.8077,-8.22461 -13.1706,-18.38442 -15.6943,-29.59246 -0.552,-2.49964 -4.4165,-1.4514 -3.7855,1.04823 2.8391,12.33691 8.9118,23.46433 17.6659,32.334 0,0.16127 0.079,0.32253 0.079,0.40317 -4.2587,10.64361 -7.65,21.52912 -8.4386,32.8178 -16.4041,-21.04532 -26.0258,-51.60539 -18.218,-77.89188 8.2809,-28.06043 38.0133,-35.80123 61.6731,-44.99344 11.9876,-4.67674 23.8175,-10.40171 32.9659,-19.67455 z"
     fill="#b5d577"
     id="path1031"
     style="stroke-width:0.155752" />
  <path
     d="m 1493.767,229.29356 c 1.7351,15.56224 2.7604,31.52766 1.7351,47.17054 -0.7887,12.17565 -5.915,22.17419 -15.4577,29.6731 -21.0572,16.44921 -49.9221,14.11084 -73.8185,23.78685 -0.1577,0.0806 -0.3943,0.16127 -0.6309,0.16127 h -0.2366 c -0.6309,0 -1.1041,-0.32253 -1.4196,-0.80634 -10.4103,-12.49817 -17.9025,-27.33472 -21.5304,-43.38077 -3.1546,-13.86895 -3.9433,-29.18929 0.4732,-42.81634 4.101,-12.74008 12.934,-22.41609 23.9752,-29.26993 23.5809,-14.75591 54.8118,-16.52985 73.8185,-38.6234 1.3407,-1.53204 3.3124,-0.16127 3.3124,1.4514 4.4953,17.33618 7.8077,34.91427 9.7793,52.65362 z m -1.8927,37.33326 c 0.1577,-28.94739 -3.9433,-57.73351 -10.7258,-85.79394 -9.1484,9.27284 -20.9783,14.99781 -32.9659,19.67455 -23.8175,9.19221 -53.4711,16.93301 -61.752,44.99344 -7.8077,26.28649 1.8928,56.84656 18.1391,78.05315 0.7887,-11.36932 4.2588,-22.25483 8.4387,-32.81781 -0.079,-0.16126 -0.079,-0.24189 -0.079,-0.40316 -8.7541,-8.86968 -14.9057,-19.99709 -17.666,-32.334 -0.552,-2.49964 3.2335,-3.6285 3.7856,-1.04823 2.6026,11.20804 7.9654,21.36785 15.6943,29.59246 3.1546,-7.49891 6.6247,-14.91718 9.7005,-22.17419 0.7887,-1.85457 1.5773,-3.78977 2.366,-5.64434 -1.4985,-4.27357 -1.4985,-8.70841 -1.5773,-13.22388 -0.1578,-6.45067 -0.1578,-12.82071 -0.079,-19.27138 0,-2.58027 3.9433,-2.58027 3.9433,0 -0.079,5.40243 -0.079,10.80487 0,16.20731 0.079,3.30597 -0.1578,6.93447 0.2366,10.40171 0.6309,-1.29013 1.2618,-2.6609 1.9716,-3.8704 2.4448,-4.59611 5.8361,-8.46651 9.3062,-12.33691 7.65,-8.54715 15.3,-17.09429 23.5809,-25.07699 1.8139,-1.77394 4.6531,1.04823 2.7603,2.82217 -7.8866,7.66017 -15.2211,15.80414 -22.5557,23.94812 -3.5489,3.95103 -7.1768,7.90207 -9.7005,12.65944 -1.183,2.25774 -2.2871,4.59611 -3.3123,6.93448 5.7572,0.0806 11.0412,-1.85457 16.0886,-4.83801 4.8108,-2.82217 10.016,-6.0475 13.6438,-10.32107 1.6562,-1.93521 4.4165,0.88696 2.7603,2.82216 -4.1799,4.91864 -10.1737,8.62778 -15.6943,11.69185 -5.7572,3.1447 -11.9876,5.16054 -18.5335,4.5961 -0.4732,1.04824 -0.8675,2.09647 -1.3407,3.14471 -3.1546,7.33764 -6.7036,14.75591 -9.8582,22.33545 12.6185,-1.53203 24.685,-5.48307 35.8839,-11.69184 2.2083,-1.2095 4.1799,2.25773 1.9717,3.46723 -12.3031,6.85384 -25.7103,11.04678 -39.6695,12.49818 -4.3377,10.72425 -7.8078,21.85166 -8.4387,33.3016 12.934,-4.75737 26.6567,-6.61194 40.0639,-9.59538 11.2778,-2.49963 22.5556,-6.20877 31.3886,-14.03021 4.1799,-3.70914 7.65,-8.22461 9.5428,-13.54641 2.6814,-6.77321 2.6025,-14.11085 2.6814,-21.12596 z"
     fill="#72aa29"
     id="path1033"
     style="stroke-width:0.155752" />
  <path
     d="m 1394.3781,238.31614 c 4.2468,18.2733 6.864,37.01919 6.7159,55.87009 -0.05,4.56833 0.049,9.39921 -1.4815,13.70498 -1.2345,3.41312 -3.4073,6.40616 -5.9751,8.8216 -5.5307,5.09342 -12.5923,7.50885 -19.6538,9.13665 -8.3948,1.94285 -16.9871,3.20308 -25.0857,6.24863 0.3951,-7.45635 2.5678,-14.65015 5.2838,-21.68642 8.6911,-0.94517 17.086,-3.67567 24.8388,-8.13897 1.3827,-0.78765 0.1481,-3.09806 -1.2345,-2.25791 -7.0122,4.04323 -14.5675,6.6162 -22.4685,7.61387 2.0246,-4.93589 4.2468,-9.76676 6.1727,-14.54512 0.2963,-0.68263 0.5432,-1.36525 0.8394,-2.04788 4.0987,0.36758 7.9998,-0.94517 11.6047,-2.99303 3.4567,-1.99536 7.2096,-4.4108 9.8268,-7.61388 1.0371,-1.26023 -0.6913,-3.15057 -1.7283,-1.83784 -2.3209,2.83552 -5.5307,4.88339 -8.543,6.72122 -3.1604,1.89034 -6.5183,3.20308 -10.0738,3.15057 0.642,-1.52277 1.2839,-3.04555 2.074,-4.51582 1.5802,-3.09806 3.8518,-5.67102 6.0739,-8.24398 4.5925,-5.30346 9.1849,-10.65943 14.1231,-15.59533 1.1358,-1.1552 -0.5926,-3.04554 -1.7284,-1.83783 -5.1356,5.19844 -9.975,10.76445 -14.765,16.33046 -2.2715,2.46795 -4.3949,5.04091 -5.9257,7.98144 -0.4445,0.84015 -0.8395,1.6803 -1.2345,2.52046 -0.2469,-2.25791 -0.1482,-4.62084 -0.1482,-6.77373 -0.049,-3.51814 -0.049,-7.03627 0,-10.55441 0,-1.6803 -2.4691,-1.6803 -2.4691,0 -0.049,4.20077 -0.049,8.34901 0.049,12.54977 0.05,2.94053 0.05,5.88106 0.9876,8.61156 -0.4938,1.26023 -0.9876,2.46795 -1.4814,3.67566 -1.9753,4.72585 -4.0986,9.55673 -6.0739,14.44011 -4.8888,-5.35597 -8.2467,-11.97217 -9.8269,-19.27098 -0.3456,-1.6278 -2.7654,-0.94517 -2.3703,0.68262 1.7777,8.03395 5.5801,15.28026 11.0614,21.0563 0,0.10503 0.049,0.21004 0.049,0.26255 -2.6666,6.93126 -4.79,14.02004 -5.2838,21.37137 -10.2713,-13.70498 -16.2959,-33.60608 -11.4071,-50.72417 5.185,-18.27331 23.8018,-23.31421 38.6162,-29.3003 7.506,-3.04555 14.9132,-6.77372 20.6414,-12.81231 z"
     fill="#b5d577"
     id="path1031-8"
     style="stroke-width:0.0994562" />
  <path
     d="m 1402.3285,269.87434 c 1.0864,10.13433 1.7284,20.53121 1.0864,30.71805 -0.4938,7.92894 -3.7036,14.44011 -9.6787,19.3235 -13.1848,10.71193 -31.2584,9.18915 -46.221,15.49029 -0.099,0.0525 -0.2469,0.10502 -0.395,0.10502 h -0.1482 c -0.395,0 -0.6913,-0.21003 -0.8888,-0.5251 -6.5184,-8.13896 -11.2096,-17.80071 -13.4811,-28.2501 -1.9753,-9.03163 -2.4691,-19.00843 0.2962,-27.88254 2.5679,-8.2965 8.0986,-14.59764 15.012,-19.06094 14.765,-9.60924 34.32,-10.76445 46.2209,-25.15204 0.8395,-0.99769 2.074,-0.10503 2.074,0.94516 2.8147,11.28954 4.8888,22.73662 6.1233,34.2887 z m -1.1851,24.31189 c 0.099,-18.8509 -2.4691,-37.59679 -6.7159,-55.87009 -5.7282,6.03859 -13.1354,9.76676 -20.6414,12.81231 -14.9131,5.98609 -33.4805,11.02699 -38.6656,29.3003 -4.8887,17.11809 1.1852,37.01919 11.3577,50.82919 0.4938,-7.40385 2.6666,-14.49263 5.2838,-21.37137 -0.049,-0.10502 -0.049,-0.15752 -0.049,-0.26254 -5.4813,-5.77605 -9.3331,-13.02236 -11.0615,-21.05631 -0.3456,-1.6278 2.0247,-2.36293 2.3704,-0.68262 1.6296,7.29881 4.9874,13.91501 9.8268,19.27098 1.9753,-4.88338 4.148,-9.71426 6.0739,-14.44011 0.4939,-1.20772 0.9877,-2.46795 1.4815,-3.67567 -0.9383,-2.783 -0.9383,-5.67102 -0.9876,-8.61155 -0.099,-4.20076 -0.099,-8.34901 -0.05,-12.54977 0,-1.6803 2.4691,-1.6803 2.4691,0 -0.05,3.51813 -0.05,7.03627 0,10.55441 0.049,2.15289 -0.099,4.51581 0.1481,6.77372 0.3951,-0.84015 0.7901,-1.73281 1.2345,-2.52045 1.5308,-2.99305 3.6543,-5.5135 5.827,-8.03395 4.79,-5.56601 9.58,-11.13202 14.7651,-16.33045 1.1357,-1.15522 2.9135,0.68262 1.7283,1.83783 -4.9381,4.9884 -9.5306,10.29185 -14.1231,15.59531 -2.2221,2.57297 -4.4937,5.14593 -6.0739,8.24399 -0.7407,1.47027 -1.432,2.99305 -2.074,4.51582 3.6049,0.0525 6.9134,-1.20772 10.0738,-3.15057 3.0123,-1.83783 6.2715,-3.93821 8.543,-6.72121 1.037,-1.26023 2.7653,0.5776 1.7283,1.83782 -2.6172,3.20308 -6.3702,5.61852 -9.8269,7.61388 -3.6048,2.04787 -7.5059,3.36061 -11.6046,2.99304 -0.2963,0.68263 -0.5432,1.36525 -0.8395,2.04788 -1.9752,4.77836 -4.1974,9.60923 -6.1726,14.54512 7.901,-0.99768 15.4563,-3.57064 22.4685,-7.61387 1.3827,-0.78764 2.6172,1.47026 1.2345,2.2579 -7.7035,4.46331 -16.0983,7.1938 -24.8388,8.13897 -2.716,6.98377 -4.8888,14.23008 -5.2838,21.68642 8.0985,-3.09805 16.6909,-4.30577 25.0857,-6.24863 7.0616,-1.62779 14.1231,-4.04323 19.6538,-9.13665 2.6172,-2.41543 4.79,-5.35597 5.9752,-8.82159 1.6789,-4.4108 1.6295,-9.18916 1.6789,-13.75749 z"
     fill="#72aa29"
     id="path1033-7"
     style="stroke-width:0.0994562" />
  <path
     d="m 80.452834,285.71699 c -0.447806,10.25747 -0.630705,22.78968 -7.546358,30.64271 -11.456164,-9.24633 -19.124259,-24.62023 -17.371262,-40.35132 0.92403,-8.43915 4.592249,-15.35674 9.55621,-21.73388 5.532076,-7.04778 11.351596,-13.71038 17.404039,-20.23394 10.8502,13.89457 15.550186,32.87563 12.51138,50.84905 -2.18508,2.57935 -4.37016,5.15872 -6.369621,7.82944 -2.86628,3.90097 -5.45233,7.98863 -7.38691,12.44576 1.341681,-5.7237 1.664251,-11.90039 1.870134,-17.52534 0.579365,-11.65473 0.929404,-23.34927 -1.53818,-34.8227 -0.436124,-1.96916 -3.137513,-1.05729 -2.701397,0.91186 2.344144,10.58417 2.049066,21.28234 1.571965,31.98836 z m 110.018236,-7.53488 c -9.82788,18.01813 -21.27544,35.36073 -35.19371,49.92747 -6.36557,6.68617 -15.08561,11.28727 -23.94623,12.01785 -8.40559,0.71094 -16.95625,-0.0629 -24.99285,-2.99592 -4.8955,-1.77655 -9.321077,-4.41829 -13.629976,-7.61176 -3.464604,-2.53414 -7.005792,-4.66738 -10.769088,-6.64193 4.30167,-7.04433 11.161467,-11.41599 18.002806,-15.04134 3.579018,-1.84436 7.026948,-3.53396 10.213108,-6.15656 0.79744,-0.63084 1.59128,-1.36091 2.38873,-1.99175 9.40126,4.11662 21.30838,4.44724 28.10873,13.49706 1.14977,1.54074 3.59661,-0.10564 2.44685,-1.64636 -7.04049,-9.38736 -18.09566,-10.10267 -27.81005,-14.05666 1.15426,-0.84505 2.39953,-1.69403 3.64841,-2.44377 13.02758,-7.71941 28.33127,-7.98279 42.77174,-6.91669 1.82736,0.11988 1.71562,-2.95667 -0.11173,-3.07654 -14.98652,-1.04252 -30.64703,-0.56493 -44.12245,7.37262 -1.91881,1.12656 -3.69211,2.49534 -5.41809,3.91177 -0.49874,0.0713 -0.89566,0.43629 -1.10696,0.89271 -1.01594,0.88877 -2.0355,1.67831 -3.09876,2.51942 -3.27717,2.62653 -7.09273,4.2326 -10.759158,6.18014 -6.437205,3.45881 -12.434232,7.74349 -16.717435,14.04154 0.629376,-9.02282 4.662077,-17.19863 9.782824,-24.27835 2.258062,-3.0795 4.658042,-6.01603 7.108939,-8.80567 0.178411,-0.10711 0.265813,-0.21028 0.349608,-0.41269 0.742926,-0.87699 1.442151,-1.70238 2.232384,-2.53171 3.324928,-3.82137 6.697158,-7.5951 10.837098,-10.30858 7.43512,-4.84378 16.35071,-6.57075 24.94912,-6.99181 8.64212,-0.47265 17.37479,0.29327 25.7975,2.56357 4.97208,1.37565 9.78737,3.45385 14.76667,5.02798 4.65895,1.53827 9.48912,2.77094 14.27197,3.95596 z"
     fill="#b5d577"
     id="path1092"
     style="stroke-width:0.131355" />
  <path
     d="m 173.72889,310.36507 c -6.24977,8.61947 -13.10777,18.0604 -21.39891,24.43215 -6.95846,5.4196 -15.19734,8.21072 -23.65745,8.67551 -8.64571,0.37341 -17.3054,-0.89266 -25.44743,-4.21878 -4.396748,-1.84779 -8.360083,-4.31069 -12.294136,-7.22215 -4.072375,-2.95519 -8.308733,-5.40631 -12.807305,-7.5479 -0.55686,-0.27414 -0.804206,-0.81016 -0.778526,-1.35796 -0.03517,-3.47746 0.39195,-6.77608 1.186683,-9.99118 -1.143902,2.38529 -2.659032,4.58781 -4.596318,6.46067 -0.74653,0.77774 -1.762035,0.424 -2.194995,-0.20339 -0.0473,-0.0476 -0.18562,-0.0914 -0.280231,-0.1867 -12.195034,-9.51263 -20.255992,-25.66474 -18.895864,-42.17407 0.658211,-8.22886 3.671356,-15.61514 8.358689,-22.07975 5.94386,-8.25835 12.823025,-15.86131 19.713011,-23.16653 0.0874,-0.10318 0.222114,-0.1587 0.309513,-0.26187 0.04773,-1.19486 1.376827,-2.24625 2.330157,-1.09464 11.436339,13.72016 16.944582,32.36812 15.150597,50.73507 l 0.655524,-0.77382 c 3.372231,-3.7737 6.886381,-7.40446 11.168241,-9.97498 7.62795,-4.55392 16.49984,-6.22929 25.14195,-6.70194 9.18816,-0.49623 18.56149,0.34142 27.45005,2.8898 4.83737,1.43115 9.51075,3.36639 14.35173,4.8968 5.1176,1.61785 10.35909,2.88246 15.55689,4.19866 0.36764,0.0835 0.64787,0.27022 0.8407,0.56008 0.42575,0.42891 0.6767,1.06417 0.2469,1.77852 -5.97405,11.19195 -12.64326,22.06601 -20.10947,32.3284 z m -18.49523,17.79609 c 13.91827,-14.56674 25.36583,-31.90933 35.19371,-49.92746 -4.78285,-1.18502 -9.61301,-2.4177 -14.36298,-3.95202 -4.97929,-1.57414 -9.74728,-3.6047 -14.76666,-5.028 -8.37902,-2.32188 -17.11169,-3.0878 -25.79751,-2.56356 -8.5511,0.46872 -17.4703,2.09643 -24.94912,6.99181 -4.13994,2.71349 -7.51217,6.48721 -10.837097,10.30858 -0.699225,0.8254 -1.442151,1.70238 -2.232384,2.5317 -0.08377,0.20242 -0.214899,0.35718 -0.349608,0.4127 -2.447291,2.88887 -4.894582,5.77775 -7.108945,8.80567 -5.120739,7.07971 -9.153442,15.25553 -9.782818,24.27834 4.283198,-6.29804 10.280231,-10.58272 16.717435,-14.04152 3.666427,-1.94755 7.481987,-3.55363 10.759157,-6.18015 1.06326,-0.84113 2.07921,-1.72989 3.09876,-2.51942 0.2113,-0.45642 0.60822,-0.82146 1.10696,-0.8927 1.72598,-1.41644 3.45558,-2.73364 5.41809,-3.91178 13.51912,-7.98914 29.17963,-8.46673 44.12245,-7.37262 1.82735,0.11987 1.93909,3.19642 0.11174,3.07654 -14.39318,-1.01844 -29.74417,-0.80272 -42.77176,6.9167 -1.24887,0.74972 -2.45043,1.54711 -3.64839,2.44375 9.75809,3.90242 20.76954,4.66932 27.81003,14.05666 1.14977,1.54073 -1.29707,3.1871 -2.44683,1.64637 -6.80036,-9.04982 -18.70748,-9.38043 -28.10874,-13.49706 -0.79745,0.63083 -1.59128,1.36091 -2.38873,1.99175 -3.18616,2.62259 -6.63409,4.3122 -10.213116,6.15657 -6.888632,3.57769 -13.704735,7.89774 -18.002796,15.04132 3.715994,1.9269 7.304484,4.1078 10.769088,6.64194 4.26159,3.14582 8.734484,5.83521 13.629974,7.61175 7.9893,2.88542 16.58726,3.70686 24.99284,2.99594 8.95163,-0.73453 17.71538,-5.38721 24.03725,-12.0218 z M 72.906476,316.3597 c 6.915653,-7.85303 7.098552,-20.38524 7.546358,-30.64271 0.477101,-10.70602 0.772179,-21.40419 -1.521054,-31.84146 -0.388813,-1.92149 2.312583,-2.83336 2.701397,-0.91186 2.511285,11.42184 2.117545,23.16797 1.53818,34.8227 -0.253191,5.57729 -0.575761,11.75398 -1.870133,17.52534 1.981889,-4.40946 4.564336,-8.59637 7.38691,-12.44576 2.04316,-2.72232 4.180937,-5.34932 6.369614,-7.82944 2.991508,-18.02107 -1.661172,-36.95448 -12.51138,-50.84905 -6.056046,6.42431 -11.919265,13.1385 -17.404039,20.23394 -4.963954,6.37715 -8.632179,13.29473 -9.556204,21.73388 -1.803908,15.58419 5.864187,30.95809 17.320351,40.20442 z"
     fill="#72aa29"
     id="path1094"
     style="stroke-width:0.131355" />
</svg>
