<?xml version="1.0" encoding="UTF-8" standalone="no"?>
<!-- Uploaded to: SVG Repo, www.svgrepo.com, Generator: SVG Repo Mixer Tools -->

<svg
   fill="#000000"
   height="800px"
   width="800px"
   version="1.1"
   id="Layer_1"
   viewBox="-143 145 512 512"
   xml:space="preserve"
   sodipodi:docname="youtube.svg"
   inkscape:export-filename="youtube.png"
   inkscape:export-xdpi="6"
   inkscape:export-ydpi="6"
   inkscape:version="1.2.1 (9c6d41e, 2022-07-14)"
   xmlns:inkscape="http://www.inkscape.org/namespaces/inkscape"
   xmlns:sodipodi="http://sodipodi.sourceforge.net/DTD/sodipodi-0.dtd"
   xmlns="http://www.w3.org/2000/svg"
   xmlns:svg="http://www.w3.org/2000/svg"><defs
   id="defs887" /><sodipodi:namedview
   id="namedview885"
   pagecolor="#ffffff"
   bordercolor="#000000"
   borderopacity="0.25"
   inkscape:showpageshadow="2"
   inkscape:pageopacity="0.0"
   inkscape:pagecheckerboard="0"
   inkscape:deskcolor="#d1d1d1"
   showgrid="false"
   inkscape:zoom="0.295"
   inkscape:cx="79.661017"
   inkscape:cy="401.69492"
   inkscape:window-width="1440"
   inkscape:window-height="777"
   inkscape:window-x="0"
   inkscape:window-y="25"
   inkscape:window-maximized="1"
   inkscape:current-layer="Layer_1" />
<g
   id="g882"
   style="fill:#ff0000">
	<polygon
   points="78.9,450.3 162.7,401.1 78.9,351.9  "
   id="polygon878"
   style="fill:#ff0000" />
	<path
   d="M113,145c-141.4,0-256,114.6-256,256s114.6,256,256,256s256-114.6,256-256S254.4,145,113,145z M241,446.8L241,446.8   c0,44.1-44.1,44.1-44.1,44.1H29.1c-44.1,0-44.1-44.1-44.1-44.1v-91.5c0-44.1,44.1-44.1,44.1-44.1h167.8c44.1,0,44.1,44.1,44.1,44.1   V446.8z"
   id="path880"
   style="fill:#ff0000" />
</g>
</svg>
